<svg width="344" height="156" fill="none" xmlns="http://www.w3.org/2000/svg">
    <g clip-path="url(#a)">
        <rect width="344" height="156" rx="8" fill="#1B1340" />
        <rect width="344" height="156" rx="8" fill="url(#b)" />
        <path
            fill-rule="evenodd"
            clip-rule="evenodd"
            d="M61.97 75.569h.001l-6.114 6.787L48 73.708v-3.73c0-.429.5-.663.829-.39l8.717 7.24c.843.7 2.065.7 2.908 0l1.516-1.26Z"
            fill="url(#c)"
        />
        <path
            d="M65.286 72.816 61.97 75.57h.001l-4.39 3.879a2.023 2.023 0 0 1-2.633.039L48 73.709v11.087c0 1.257 1.019 2.205 2.276 2.205h15.01l1.571-7.057-1.571-7.128Z"
            fill="url(#d)"
        />
        <path
            fill-rule="evenodd"
            clip-rule="evenodd"
            d="M65.286 72.818v14.181h2.438A2.276 2.276 0 0 0 70 84.723V69.977c0-.428-.5-.662-.829-.389l-3.885 3.23Z"
            fill="url(#e)"
        />
        <path
            d="M94.357 69A2.357 2.357 0 0 0 92 71.357v.786l.786.786v13.357l15.714-7.857.786.785H114v-7.857A2.357 2.357 0 0 0 111.643 69H94.357Z"
            fill="url(#f)"
        />
        <path
            d="M107.434 72.143H92v12.593A2.264 2.264 0 0 0 94.264 87h7.95l3.829-5.685a2.57 2.57 0 0 1 2.527-2.101h.716v-5.22a1.852 1.852 0 0 0-1.852-1.851Z"
            fill="url(#g)"
        />
        <path
            d="M102.214 87v-.798c0-.455.158-.895.446-1.246l3.788-4.619c.099-.148.212-.286.338-.411l-.338.411a2.668 2.668 0 0 0-.448 1.484V87h-3.786Z"
            fill="#B8D7FF"
        />
        <path
            d="M108.186 84.232h.802a.618.618 0 0 0 .63.468c.362 0 .602-.198.602-.488s-.249-.452-.742-.452h-.318v-.655h.276c.477 0 .672-.175.672-.436 0-.26-.212-.44-.504-.44a.502.502 0 0 0-.53.454h-.774c.028-.456.39-1.11 1.299-1.11.73 0 1.234.412 1.234.993a.87.87 0 0 1-.616.837v.011a.877.877 0 0 1 .725.892c0 .63-.581 1.044-1.331 1.044-.798.005-1.367-.445-1.425-1.118ZM112.344 81.635h.583v3.663h-.753v-2.81l-.725.488v-.74l.895-.601Z"
            fill="#8F69FF"
        />
        <path
            d="m136 71.357 3.143-1.572 5.5 3.143h9.428v13.286l-.785.785h-14.929A2.357 2.357 0 0 1 136 84.642V71.357Z"
            fill="url(#h)"
        />
        <path
            fill-rule="evenodd"
            clip-rule="evenodd"
            d="M144.612 70.12c.403.294.888.451 1.387.451h9.644A2.357 2.357 0 0 1 158 72.93v11.714A2.357 2.357 0 0 1 155.643 87h-2.357V75.679c0-1.085-.88-1.965-1.965-1.965h-8.25c-.51 0-1.006-.165-1.414-.471l-1.886-1.414a2.356 2.356 0 0 0-1.414-.472H136A2.357 2.357 0 0 1 138.357 69h3.948c.498 0 .983.158 1.386.45l.921.67Z"
            fill="url(#i)"
        />
        <path
            fill-rule="evenodd"
            clip-rule="evenodd"
            d="M188.837 86.746c.836 1.503 2.983 1.585 3.932.15l8.852-13.385c.938-1.42.04-3.322-1.659-3.516l-17.398-1.98c-1.855-.21-3.176 1.745-2.273 3.367l.07.127 7.763 5.32-.094 8.461.807 1.456Z"
            fill="url(#j)"
        />
        <path
            d="m189.335 85.344.786-1.171 5.967-9.014c.522-.788.024-1.845-.92-1.953l-14.809-1.7 7.671 13.79a.77.77 0 0 0 1.305.048Z"
            fill="url(#k)"
        />
        <g clip-path="url(#l)">
            <path
                d="M219 69.556C219 63.726 223.726 59 229.556 59h16.888C252.274 59 257 63.726 257 69.556v16.888C257 92.274 252.274 97 246.444 97h-16.888C223.726 97 219 92.274 219 86.444V69.556Z"
                fill="#fff"
            />
            <path
                d="M233.372 69.322c1.62-1.62 2.43-2.43 3.364-2.733a4.09 4.09 0 0 1 2.528 0c.934.303 1.744 1.113 3.364 2.733l4.05 4.05c1.62 1.62 2.43 2.43 2.733 3.364a4.09 4.09 0 0 1 0 2.528c-.303.934-1.113 1.744-2.733 3.364l-4.05 4.05c-1.62 1.62-2.43 2.43-3.364 2.733a4.09 4.09 0 0 1-2.528 0c-.934-.304-1.744-1.114-3.364-2.734l-.761-.853c-.461-.517-.691-.775-.856-1.069a3.1 3.1 0 0 1-.317-.832c-.073-.329-.073-.675-.073-1.367v-9.113c0-.692 0-1.038.073-1.366a3.1 3.1 0 0 1 .317-.833c.165-.293.395-.552.856-1.068l.761-.854Z"
                fill="url(#m)"
            />
            <path
                d="M233.372 69.322c1.62-1.62 2.43-2.43 3.364-2.733a4.09 4.09 0 0 1 2.528 0c.934.303 1.744 1.113 3.364 2.733l4.05 4.05c1.62 1.62 2.43 2.43 2.733 3.364a4.09 4.09 0 0 1 0 2.528c-.303.934-1.113 1.744-2.733 3.364l-4.05 4.05c-1.62 1.62-2.43 2.43-3.364 2.733a4.09 4.09 0 0 1-2.528 0c-.934-.304-1.744-1.114-3.364-2.734l-.761-.853c-.461-.517-.691-.775-.856-1.069a3.1 3.1 0 0 1-.317-.832c-.073-.329-.073-.675-.073-1.367v-9.113c0-.692 0-1.038.073-1.366a3.1 3.1 0 0 1 .317-.833c.165-.293.395-.552.856-1.068l.761-.854Z"
                fill="url(#n)"
            />
            <path
                d="M233.083 69.611c.81-.81 1.215-1.215 1.682-1.366a2.046 2.046 0 0 1 1.264 0c.467.151.872.556 1.682 1.366l6.074 6.075c.81.81 1.215 1.214 1.367 1.682.133.41.133.853 0 1.264-.152.467-.557.872-1.367 1.682l-6.074 6.074c-.81.81-1.215 1.215-1.682 1.366a2.045 2.045 0 0 1-1.264 0c-.467-.151-.872-.556-1.682-1.366l-3.76-3.76c-1.62-1.62-2.43-2.43-2.734-3.364a4.09 4.09 0 0 1 0-2.528c.304-.934 1.114-1.745 2.734-3.364l3.76-3.76Z"
                fill="url(#o)"
            />
        </g>
        <mask id="p" style="mask-type: alpha" maskUnits="userSpaceOnUse" x="275" y="69" width="21" height="18">
            <path
                fill-rule="evenodd"
                clip-rule="evenodd"
                d="M275.023 87v-2.838h4.316c1.564 0 2.832-1.355 2.832-3.026 0-1.67-1.268-3.025-2.832-3.025h-4.316V69h20.781v18h-20.781Zm0-8.889H275v6.05h.023v-6.05Zm5.708 3.035a1.61 1.61 0 1 0-3.22 0 1.61 1.61 0 0 0 3.22 0Z"
                fill="#fff"
            />
        </mask>
        <g mask="url(#p)">
            <path
                d="M277.092 87a2.07 2.07 0 0 1-2.069-2.069V71.069A2.07 2.07 0 0 1 277.092 69h10.436a8.276 8.276 0 0 1 8.276 8.276v7.655A2.069 2.069 0 0 1 293.735 87h-16.643Z"
                fill="url(#q)"
            />
            <path
                d="M277.074 86.749a2.07 2.07 0 0 1-2.069-2.069V71.676h10.184a6.207 6.207 0 0 1 6.207 6.207v8.866h-14.322Z"
                fill="#6D4AFF"
            />
            <path
                d="M277.074 86.749a2.07 2.07 0 0 1-2.069-2.069V71.676h10.184a6.207 6.207 0 0 1 6.207 6.207v8.866h-14.322Z"
                fill="url(#r)"
                fill-opacity=".9"
            />
            <path d="m278.113 87.002 3.349-3.805-6.439.805v.673a2.328 2.328 0 0 0 2.328 2.327h.762Z" fill="#FFBB93" />
        </g>
    </g>
    <defs>
        <linearGradient id="c" x1="56.255" y1="82.476" x2="48.877" y2="56.845" gradientUnits="userSpaceOnUse">
            <stop stop-color="#E3D9FF" />
            <stop offset="1" stop-color="#7341FF" />
        </linearGradient>
        <linearGradient id="e" x1="77.115" y1="98.363" x2="60.256" y2="61.848" gradientUnits="userSpaceOnUse">
            <stop offset=".271" stop-color="#E3D9FF" />
            <stop offset="1" stop-color="#7341FF" />
        </linearGradient>
        <linearGradient id="f" x1="110.482" y1="80.814" x2="97.65" y2="62.171" gradientUnits="userSpaceOnUse">
            <stop stop-color="#BFE8FF" />
            <stop offset=".307" stop-color="#BFABFF" />
            <stop offset="1" stop-color="#7341FF" />
        </linearGradient>
        <linearGradient id="i" x1="135.71" y1="59.606" x2="162.866" y2="89.792" gradientUnits="userSpaceOnUse">
            <stop stop-color="#7341FF" />
            <stop offset=".359" stop-color="#B487FF" />
            <stop offset="1" stop-color="#FFC8FF" />
        </linearGradient>
        <linearGradient id="j" x1="199.894" y1="86.745" x2="185.738" y2="62.333" gradientUnits="userSpaceOnUse">
            <stop offset=".066" stop-color="#8EFFEE" />
            <stop offset=".45" stop-color="#C9C7FF" />
            <stop offset="1" stop-color="#7341FF" />
        </linearGradient>
        <linearGradient id="n" x1="232.598" y1="61.778" x2="237.114" y2="89.344" gradientUnits="userSpaceOnUse">
            <stop stop-color="#6D4AFF" />
            <stop offset=".392" stop-color="#B39FFB" stop-opacity=".978" />
            <stop offset="1" stop-color="#FFE8DB" stop-opacity=".8" />
        </linearGradient>
        <linearGradient id="q" x1="272.389" y1="71.095" x2="298.125" y2="81.12" gradientUnits="userSpaceOnUse">
            <stop stop-color="#957AFD" />
            <stop offset="1" stop-color="#FFC6C6" />
        </linearGradient>
        <linearGradient id="r" x1="290.469" y1="73.99" x2="282.48" y2="90.224" gradientUnits="userSpaceOnUse">
            <stop offset=".15" stop-color="#FA528E" stop-opacity="0" />
            <stop offset=".721" stop-color="#FF8065" />
            <stop offset="1" stop-color="#FFA51F" />
        </linearGradient>
        <radialGradient
            id="b"
            cx="0"
            cy="0"
            r="1"
            gradientUnits="userSpaceOnUse"
            gradientTransform="matrix(-16.99992 -133.49997 316.65298 -40.32266 261.5 196)"
        >
            <stop stop-color="#FFD580" />
            <stop offset=".063" stop-color="#F6CC88" />
            <stop offset=".182" stop-color="#E4BB98" />
            <stop offset=".292" stop-color="#D2AAA8" />
            <stop offset=".344" stop-color="#C9A2AB" />
            <stop offset=".453" stop-color="#BB95B1" />
            <stop offset=".583" stop-color="#9A75A3" />
            <stop offset=".724" stop-color="#724C91" />
            <stop offset=".896" stop-color="#312255" />
            <stop offset="1" stop-color="#1B1340" />
        </radialGradient>
        <radialGradient
            id="d"
            cx="0"
            cy="0"
            r="1"
            gradientUnits="userSpaceOnUse"
            gradientTransform="matrix(21.9907 0 0 20.624 66.775 74.553)"
        >
            <stop offset=".556" stop-color="#6D4AFF" />
            <stop offset=".994" stop-color="#AA8EFF" />
        </radialGradient>
        <radialGradient
            id="g"
            cx="0"
            cy="0"
            r="1"
            gradientUnits="userSpaceOnUse"
            gradientTransform="matrix(35.293 0 0 31.3883 108.625 59.748)"
        >
            <stop offset=".503" stop-color="#6D4AFF" />
            <stop offset=".994" stop-color="#06B8FF" />
        </radialGradient>
        <radialGradient
            id="h"
            cx="0"
            cy="0"
            r="1"
            gradientUnits="userSpaceOnUse"
            gradientTransform="matrix(33.721 0 0 35.6429 155.585 57.96)"
        >
            <stop offset=".556" stop-color="#6D4AFF" />
            <stop offset="1" stop-color="#FF50C3" />
        </radialGradient>
        <radialGradient
            id="k"
            cx="0"
            cy="0"
            r="1"
            gradientUnits="userSpaceOnUse"
            gradientTransform="rotate(93.755 64.151 121.264) scale(22.4617 28.9668)"
        >
            <stop offset=".403" stop-color="#6D4AFF" />
            <stop offset=".994" stop-color="#00F0C3" />
        </radialGradient>
        <radialGradient
            id="m"
            cx="0"
            cy="0"
            r="1"
            gradientUnits="userSpaceOnUse"
            gradientTransform="matrix(10.23166 -16.46474 25.74746 16.00021 233.397 90.064)"
        >
            <stop stop-color="#FFD580" />
            <stop offset=".094" stop-color="#F6C592" />
            <stop offset=".205" stop-color="#EBB6A2" />
            <stop offset=".324" stop-color="#DFA5AF" />
            <stop offset=".429" stop-color="#D397BE" />
            <stop offset=".534" stop-color="#C486CB" />
            <stop offset=".649" stop-color="#B578D9" />
            <stop offset=".771" stop-color="#A166E5" />
            <stop offset=".891" stop-color="#8B57F2" />
            <stop offset="1" stop-color="#704CFF" />
        </radialGradient>
        <radialGradient
            id="o"
            cx="0"
            cy="0"
            r="1"
            gradientUnits="userSpaceOnUse"
            gradientTransform="matrix(8.22981 -13.24337 20.70992 12.86973 231.695 87.703)"
        >
            <stop stop-color="#FFD580" />
            <stop offset=".094" stop-color="#F6C592" />
            <stop offset=".205" stop-color="#EBB6A2" />
            <stop offset=".324" stop-color="#DFA5AF" />
            <stop offset=".429" stop-color="#D397BE" />
            <stop offset=".534" stop-color="#C486CB" />
            <stop offset=".649" stop-color="#B578D9" />
            <stop offset=".771" stop-color="#A166E5" />
            <stop offset=".891" stop-color="#8B57F2" />
            <stop offset="1" stop-color="#704CFF" />
        </radialGradient>
        <clipPath id="a">
            <path fill="#fff" d="M0 0h344v156H0z" />
        </clipPath>
        <clipPath id="l">
            <path fill="#fff" transform="translate(219 59)" d="M0 0h38v38H0z" />
        </clipPath>
    </defs>
</svg>
